<?xml version="1.0" encoding="utf-8"?>
<!-- Generator: Adobe Illustrator 27.1.1, SVG Export Plug-In . SVG Version: 6.00 Build 0)  -->
<svg version="1.1" id="Camada_2_00000084513436721500499750000017657549011420605118_"
	 xmlns="http://www.w3.org/2000/svg" xmlns:xlink="http://www.w3.org/1999/xlink" x="0px" y="0px" viewBox="0 0 1885 56"
	 style="enable-background:new 0 0 1885 56;" xml:space="preserve">
<style type="text/css">
	.st0{fill:#FFFFFF;}
	.st1{fill:#E94435;}
	.st2{fill:#F8BB15;}
	.st3{fill:#547DBE;}
	.st4{fill:#34A751;}
</style>
<g id="icons">
	<g id="buttons">
		<g>
			<circle class="st0" cx="143" cy="45" r="8"/>
			<g>
				<path class="st0" d="M141.1,39.3c-1.5,0.5-2.8,1.6-3.5,3c-0.2,0.5-0.4,1-0.5,1.5c-0.3,1.3-0.1,2.7,0.5,3.9c0.4,0.8,1,1.5,1.7,2
					c0.6,0.5,1.4,0.9,2.2,1.1c1,0.3,2.1,0.3,3.1,0c0.9-0.2,1.8-0.7,2.5-1.3c0.7-0.7,1.3-1.5,1.6-2.5c0.3-1,0.4-2.1,0.1-3.2h-5.8v2.3
					h3.3c-0.1,0.8-0.6,1.4-1.2,1.8c-0.4,0.3-0.9,0.4-1.4,0.5c-0.5,0.1-1,0.1-1.5,0c-0.5-0.1-1-0.3-1.4-0.6c-0.6-0.5-1.1-1.1-1.4-1.8
					c-0.3-0.8-0.3-1.6,0-2.3c0.2-0.5,0.5-1,0.9-1.4c0.5-0.5,1.1-0.8,1.8-1c0.6-0.1,1.2-0.1,1.8,0.1c0.5,0.2,0.9,0.4,1.3,0.8
					c0.4-0.4,0.8-0.7,1.1-1.1c0.2-0.2,0.4-0.4,0.6-0.6c-0.6-0.5-1.2-0.9-2-1.2C143.9,38.9,142.4,38.9,141.1,39.3L141.1,39.3z"/>
				<path class="st1" d="M141.1,39.3c1.3-0.5,2.8-0.4,4.1,0c0.7,0.3,1.4,0.7,2,1.2c-0.2,0.2-0.4,0.4-0.6,0.6
					c-0.4,0.4-0.8,0.7-1.1,1.1c-0.4-0.3-0.8-0.6-1.3-0.8c-0.6-0.2-1.2-0.2-1.8-0.1c-0.7,0.1-1.3,0.5-1.8,1c-0.4,0.4-0.7,0.9-0.9,1.4
					c-0.7-0.5-1.3-1-2-1.5C138.3,40.9,139.6,39.8,141.1,39.3L141.1,39.3z"/>
				<path class="st2" d="M137.1,43.8c0.1-0.5,0.3-1,0.5-1.5c0.7,0.5,1.3,1,2,1.5c-0.3,0.8-0.3,1.6,0,2.3c-0.7,0.5-1.3,1-2,1.5
					C137,46.5,136.8,45.1,137.1,43.8L137.1,43.8z"/>
				<path class="st3" d="M143.1,43.9h5.8c0.2,1,0.1,2.2-0.1,3.2c-0.3,0.9-0.8,1.8-1.6,2.5c-0.6-0.5-1.3-1-1.9-1.5
					c0.6-0.4,1.1-1.1,1.2-1.8h-3.3C143.1,45.5,143.1,44.7,143.1,43.9L143.1,43.9z"/>
				<path class="st4" d="M137.6,47.7c0.7-0.5,1.3-1,2-1.5c0.2,0.7,0.8,1.4,1.4,1.8c0.4,0.3,0.9,0.5,1.4,0.6c0.5,0.1,1,0.1,1.5,0
					c0.5-0.1,0.9-0.3,1.4-0.5c0.6,0.5,1.3,1,1.9,1.5c-0.7,0.6-1.6,1.1-2.5,1.3c-1,0.2-2.1,0.2-3.1,0c-0.8-0.2-1.6-0.6-2.2-1.1
					C138.6,49.2,138,48.5,137.6,47.7z"/>
			</g>
		</g>
	</g>
</g>
</svg>
