<?xml version="1.0" encoding="utf-8"?>
<!-- Generator: Adobe Illustrator 27.1.1, SVG Export Plug-In . SVG Version: 6.00 Build 0)  -->
<svg version="1.1" id="Camada_2_00000042701727955344279550000016978118409385216163_"
	 xmlns="http://www.w3.org/2000/svg" xmlns:xlink="http://www.w3.org/1999/xlink" x="0px" y="0px" viewBox="0 0 126 13.5"
	 style="enable-background:new 0 0 126 13.5;" xml:space="preserve">
<style type="text/css">
	.st0{enable-background:new    ;}
</style>
<g id="text">
	<g>
		<g class="st0">
			<path d="M7.1,7.5L7.1,7.5c0,0.8-0.3,1.5-0.8,2S4.9,10.4,4,10.4c-1,0-1.8-0.3-2.4-1S0.7,7.8,0.7,6.8V5.2c0-1.1,0.3-1.9,0.9-2.6
				s1.4-1,2.4-1s1.7,0.3,2.3,0.8s0.8,1.2,0.8,2l0,0H6C6,3.9,5.8,3.4,5.4,3S4.6,2.5,4,2.5c-0.6,0-1.2,0.3-1.5,0.8
				C2,3.8,1.8,4.5,1.8,5.2v1.5c0,0.8,0.2,1.4,0.6,1.9C2.8,9.2,3.3,9.5,4,9.5c0.6,0,1.1-0.2,1.5-0.5S6,8.1,6,7.5H7.1z"/>
			<path d="M9.6,4.8c0.2-0.3,0.5-0.5,0.8-0.7s0.7-0.3,1.1-0.3c0.7,0,1.2,0.2,1.6,0.6s0.6,1,0.6,1.9v4h-1.2v-4c0-0.5-0.1-0.9-0.3-1.2
				s-0.6-0.4-1-0.4c-0.3,0-0.6,0.1-0.9,0.2S9.8,5.3,9.6,5.6v4.7H8.4V1.1h1.2V4.8z"/>
		</g>
		<g class="st0">
			<path d="M18.3,4.9l-0.6,0c-0.3,0-0.6,0.1-0.8,0.2s-0.4,0.3-0.5,0.6v4.5h-1.2V3.9h1l0.1,0.9c0.2-0.3,0.4-0.6,0.7-0.8
				s0.6-0.3,0.9-0.3c0.1,0,0.2,0,0.2,0s0.1,0,0.2,0L18.3,4.9z"/>
		</g>
		<g class="st0">
			<path d="M19,7c0-0.9,0.3-1.7,0.8-2.3s1.2-0.9,2.1-0.9c0.9,0,1.6,0.3,2.1,0.9s0.8,1.4,0.8,2.3v0.1c0,0.9-0.3,1.7-0.8,2.3
				s-1.2,0.9-2.1,0.9s-1.6-0.3-2.1-0.9S19,8.1,19,7.2V7z M20.1,7.2c0,0.7,0.1,1.2,0.4,1.7c0.3,0.4,0.7,0.7,1.3,0.7
				c0.6,0,1-0.2,1.3-0.7c0.3-0.4,0.4-1,0.4-1.7V7c0-0.7-0.1-1.2-0.4-1.7c-0.3-0.4-0.7-0.7-1.3-0.7c-0.6,0-1,0.2-1.3,0.7
				c-0.3,0.4-0.4,1-0.4,1.7V7.2z"/>
			<path d="M27.1,3.9l0.1,0.8c0.2-0.3,0.5-0.5,0.8-0.7s0.7-0.2,1.1-0.2s0.8,0.1,1.1,0.3s0.5,0.5,0.7,0.9c0.2-0.4,0.5-0.6,0.8-0.9
				s0.7-0.3,1.1-0.3c0.6,0,1.2,0.2,1.5,0.7s0.6,1.1,0.6,2v3.8h-1.2V6.5c0-0.6-0.1-1.1-0.3-1.3s-0.5-0.4-1-0.4c-0.4,0-0.7,0.1-1,0.4
				s-0.4,0.6-0.4,1v0v4h-1.2V6.5c0-0.6-0.1-1-0.3-1.3s-0.5-0.4-1-0.4c-0.4,0-0.6,0.1-0.9,0.2s-0.4,0.3-0.5,0.6v4.7h-1.2V3.9H27.1z"
				/>
			<path d="M39.2,10.4c-0.9,0-1.6-0.3-2.1-0.9s-0.8-1.4-0.8-2.3V7c0-0.9,0.3-1.7,0.8-2.3s1.2-0.9,1.9-0.9c0.9,0,1.5,0.3,1.9,0.8
				s0.7,1.2,0.7,2.1v0.7h-4.1l0,0c0,0.6,0.2,1.1,0.5,1.5c0.3,0.4,0.7,0.6,1.2,0.6c0.4,0,0.7-0.1,1-0.2s0.5-0.3,0.8-0.5l0.5,0.8
				c-0.2,0.2-0.5,0.4-0.9,0.6C40.2,10.3,39.7,10.4,39.2,10.4z M39,4.7c-0.4,0-0.7,0.2-1,0.5s-0.4,0.7-0.5,1.2l0,0h2.9V6.3
				c0-0.5-0.1-0.8-0.4-1.1C39.9,4.9,39.5,4.7,39,4.7z"/>
			<path d="M51.9,2.6h-2.7v7.6H48V2.6h-2.7V1.7h6.6V2.6z"/>
			<path d="M54.1,4.8c0.2-0.3,0.5-0.5,0.8-0.7s0.7-0.3,1.1-0.3c0.7,0,1.2,0.2,1.6,0.6s0.6,1,0.6,1.9v4h-1.2v-4
				c0-0.5-0.1-0.9-0.3-1.2s-0.6-0.4-1-0.4c-0.3,0-0.6,0.1-0.9,0.2s-0.5,0.4-0.6,0.6v4.7h-1.2V1.1h1.2V4.8z"/>
			<path d="M62.4,10.4c-0.9,0-1.6-0.3-2.1-0.9s-0.8-1.4-0.8-2.3V7c0-0.9,0.3-1.7,0.8-2.3s1.2-0.9,1.9-0.9c0.9,0,1.5,0.3,1.9,0.8
				s0.7,1.2,0.7,2.1v0.7h-4.1l0,0c0,0.6,0.2,1.1,0.5,1.5c0.3,0.4,0.7,0.6,1.2,0.6c0.4,0,0.7-0.1,1-0.2s0.5-0.3,0.8-0.5l0.5,0.8
				c-0.2,0.2-0.5,0.4-0.9,0.6C63.4,10.3,62.9,10.4,62.4,10.4z M62.2,4.7c-0.4,0-0.7,0.2-1,0.5s-0.4,0.7-0.5,1.2l0,0h2.9V6.3
				c0-0.5-0.1-0.8-0.4-1.1C63,4.9,62.7,4.7,62.2,4.7z"/>
			<path d="M67.1,3.9l0.1,0.8c0.2-0.3,0.5-0.5,0.8-0.7s0.7-0.2,1.1-0.2s0.8,0.1,1.1,0.3s0.5,0.5,0.7,0.9c0.2-0.4,0.5-0.6,0.8-0.9
				s0.7-0.3,1.1-0.3c0.6,0,1.2,0.2,1.5,0.7s0.6,1.1,0.6,2v3.8h-1.2V6.5c0-0.6-0.1-1.1-0.3-1.3s-0.5-0.4-1-0.4c-0.4,0-0.7,0.1-1,0.4
				s-0.4,0.6-0.4,1v0v4h-1.2V6.5c0-0.6-0.1-1-0.3-1.3s-0.5-0.4-1-0.4c-0.4,0-0.6,0.1-0.9,0.2s-0.4,0.3-0.5,0.6v4.7h-1.2V3.9H67.1z"
				/>
			<path d="M79.2,10.4c-0.9,0-1.6-0.3-2.1-0.9s-0.8-1.4-0.8-2.3V7c0-0.9,0.3-1.7,0.8-2.3s1.2-0.9,1.9-0.9c0.9,0,1.5,0.3,1.9,0.8
				s0.7,1.2,0.7,2.1v0.7h-4.1l0,0c0,0.6,0.2,1.1,0.5,1.5c0.3,0.4,0.7,0.6,1.2,0.6c0.4,0,0.7-0.1,1-0.2s0.5-0.3,0.8-0.5l0.5,0.8
				c-0.2,0.2-0.5,0.4-0.9,0.6C80.2,10.3,79.7,10.4,79.2,10.4z M79,4.7c-0.4,0-0.7,0.2-1,0.5s-0.4,0.7-0.5,1.2l0,0h2.9V6.3
				c0-0.5-0.1-0.8-0.4-1.1C79.9,4.9,79.5,4.7,79,4.7z"/>
			<path d="M86.1,10.3V1.7h2.8c0.9,0,1.6,0.2,2.1,0.6s0.8,1,0.8,1.7c0,0.4-0.1,0.7-0.4,1s-0.6,0.5-1,0.7c0.5,0.1,0.9,0.4,1.2,0.8
				s0.4,0.9,0.4,1.4c0,0.8-0.3,1.4-0.8,1.8s-1.2,0.6-2.1,0.6H86.1z M87.3,5.4h1.9c0.4,0,0.8-0.1,1-0.4s0.4-0.6,0.4-1
				c0-0.5-0.1-0.8-0.4-1s-0.7-0.3-1.3-0.3h-1.6V5.4z M87.3,6.3v3.1h2c0.5,0,0.9-0.1,1.2-0.4c0.3-0.3,0.4-0.6,0.4-1.1
				c0-0.5-0.1-0.9-0.4-1.2c-0.2-0.3-0.6-0.4-1.1-0.4H87.3z"/>
			<path d="M97.6,9.3c-0.2,0.3-0.5,0.6-0.8,0.8s-0.7,0.3-1.1,0.3c-0.7,0-1.2-0.2-1.6-0.7s-0.6-1.1-0.6-2.1V3.9h1.2v3.8
				c0,0.7,0.1,1.1,0.3,1.4s0.5,0.4,0.9,0.4c0.4,0,0.7-0.1,1-0.2s0.5-0.4,0.6-0.7V3.9h1.2v6.3h-1L97.6,9.3z"/>
			<path d="M101.6,2.3h-1.2V1.1h1.2V2.3z M101.6,10.3h-1.2V3.9h1.2V10.3z"/>
			<path d="M104.7,10.3h-1.2V1.1h1.2V10.3z"/>
			<path d="M106.2,7.2c0-1,0.2-1.8,0.7-2.5s1-0.9,1.8-0.9c0.4,0,0.7,0.1,1,0.2s0.5,0.3,0.7,0.6V1.1h1.2v9.1h-0.9l-0.1-0.8
				c-0.2,0.3-0.5,0.5-0.8,0.7s-0.7,0.2-1,0.2c-0.8,0-1.4-0.3-1.8-0.8s-0.7-1.3-0.7-2.2V7.2z M107.3,7.3c0,0.6,0.1,1.2,0.4,1.5
				s0.7,0.6,1.2,0.6c0.3,0,0.6-0.1,0.9-0.2s0.4-0.4,0.6-0.7v-3c-0.1-0.3-0.3-0.5-0.6-0.6s-0.5-0.2-0.9-0.2c-0.6,0-1,0.2-1.2,0.7
				s-0.4,1.1-0.4,1.8V7.3z"/>
			<path d="M115.9,10.4c-0.9,0-1.6-0.3-2.1-0.9S113,8.2,113,7.2V7c0-0.9,0.3-1.7,0.8-2.3s1.2-0.9,1.9-0.9c0.9,0,1.5,0.3,1.9,0.8
				s0.7,1.2,0.7,2.1v0.7h-4.1l0,0c0,0.6,0.2,1.1,0.5,1.5c0.3,0.4,0.7,0.6,1.2,0.6c0.4,0,0.7-0.1,1-0.2s0.5-0.3,0.8-0.5l0.5,0.8
				c-0.2,0.2-0.5,0.4-0.9,0.6C116.9,10.3,116.4,10.4,115.9,10.4z M115.7,4.7c-0.4,0-0.7,0.2-1,0.5s-0.4,0.7-0.5,1.2l0,0h2.9V6.3
				c0-0.5-0.1-0.8-0.4-1.1C116.6,4.9,116.2,4.7,115.7,4.7z"/>
			<path d="M122.6,4.9l-0.6,0c-0.3,0-0.6,0.1-0.8,0.2s-0.4,0.3-0.5,0.6v4.5h-1.2V3.9h1l0.1,0.9c0.2-0.3,0.4-0.6,0.7-0.8
				s0.6-0.3,0.9-0.3c0.1,0,0.2,0,0.2,0s0.1,0,0.2,0L122.6,4.9z"/>
		</g>
	</g>
</g>
</svg>
