<?xml version="1.0" encoding="utf-8"?>
<!-- Generator: Adobe Illustrator 27.1.1, SVG Export Plug-In . SVG Version: 6.00 Build 0)  -->
<svg version="1.1" id="Camada_2_00000067208089016871974210000004192481811070539961_"
	 xmlns="http://www.w3.org/2000/svg" xmlns:xlink="http://www.w3.org/1999/xlink" x="0px" y="0px" viewBox="0 0 44.5 13.5"
	 style="enable-background:new 0 0 44.5 13.5;" xml:space="preserve">
<style type="text/css">
	.st0{enable-background:new    ;}
</style>
<g id="text">
	<g class="st0">
		<path d="M7.5,10.3H6.4L2.2,3.7l0,0v6.6H1.1V1.7h1.2l4.1,6.6l0,0V1.7h1.2V10.3z"/>
		<path d="M12,10.4c-0.9,0-1.6-0.3-2.1-0.9S9.1,8.2,9.1,7.2V7c0-0.9,0.3-1.7,0.8-2.3s1.2-0.9,1.9-0.9c0.9,0,1.5,0.3,1.9,0.8
			s0.7,1.2,0.7,2.1v0.7h-4.1l0,0c0,0.6,0.2,1.1,0.5,1.5c0.3,0.4,0.7,0.6,1.2,0.6c0.4,0,0.7-0.1,1-0.2s0.5-0.3,0.8-0.5l0.5,0.8
			c-0.2,0.2-0.5,0.4-0.9,0.6C13,10.3,12.6,10.4,12,10.4z M11.9,4.7c-0.4,0-0.7,0.2-1,0.5s-0.4,0.7-0.5,1.2l0,0h2.9V6.3
			c0-0.5-0.1-0.8-0.4-1.1C12.7,4.9,12.3,4.7,11.9,4.7z"/>
		<path d="M17.4,8l0.1,0.8h0L17.7,8l1.3-4h0.9l1.3,4l0.2,0.9h0L21.6,8l1-4h1.1l-1.8,6.3h-0.9l-1.2-3.9l-0.3-1.1l0,0l-0.3,1.1
			l-1.2,3.9H17l-1.8-6.3h1.1L17.4,8z"/>
		<path d="M29.3,2.4v1.5h1.2v0.9h-1.2v3.8c0,0.3,0.1,0.5,0.2,0.6s0.3,0.2,0.5,0.2c0.1,0,0.1,0,0.2,0s0.2,0,0.2-0.1l0.2,0.8
			c-0.1,0.1-0.2,0.1-0.4,0.2s-0.3,0.1-0.5,0.1c-0.5,0-0.8-0.1-1.1-0.4s-0.4-0.7-0.4-1.3V4.8h-1V3.9h1V2.4H29.3z"/>
		<path d="M35.9,10.3c0-0.2-0.1-0.4-0.1-0.5s0-0.3,0-0.4c-0.2,0.3-0.5,0.6-0.8,0.8s-0.7,0.3-1.1,0.3c-0.7,0-1.2-0.2-1.5-0.5
			s-0.5-0.8-0.5-1.4c0-0.6,0.2-1.1,0.7-1.4s1.2-0.5,2-0.5h1.3V5.9c0-0.4-0.1-0.7-0.3-0.9s-0.5-0.3-1-0.3c-0.4,0-0.7,0.1-0.9,0.3
			s-0.3,0.4-0.3,0.7h-1.1l0,0c0-0.5,0.2-0.9,0.7-1.3s1.1-0.6,1.8-0.6c0.7,0,1.3,0.2,1.7,0.5s0.7,0.9,0.7,1.6V9c0,0.2,0,0.4,0,0.7
			s0.1,0.4,0.1,0.6H35.9z M33.9,9.4c0.4,0,0.8-0.1,1.1-0.3c0.3-0.2,0.6-0.5,0.7-0.7v-1h-1.3c-0.5,0-0.8,0.1-1.1,0.4
			s-0.4,0.5-0.4,0.8c0,0.3,0.1,0.5,0.3,0.7C33.3,9.3,33.6,9.4,33.9,9.4z"/>
		<path d="M44,7.3c0,0.9-0.2,1.7-0.7,2.2s-1,0.8-1.8,0.8c-0.4,0-0.8-0.1-1.1-0.2s-0.6-0.4-0.8-0.7l-0.1,0.8h-0.9V1.1h1.2v3.6
			c0.2-0.3,0.4-0.5,0.7-0.6s0.6-0.2,1-0.2c0.8,0,1.4,0.3,1.8,0.9S44,6.2,44,7.2V7.3z M42.8,7.2c0-0.7-0.1-1.3-0.4-1.8
			s-0.7-0.7-1.2-0.7c-0.4,0-0.7,0.1-0.9,0.3s-0.4,0.4-0.6,0.7v2.7c0.1,0.3,0.3,0.6,0.6,0.7s0.5,0.3,0.9,0.3c0.5,0,0.9-0.2,1.2-0.6
			s0.4-0.9,0.4-1.5V7.2z"/>
	</g>
</g>
</svg>
